<?xml version="1.0"?>
<svg xmlns:rdf="http://www.w3.org/1999/02/22-rdf-syntax-ns#" xmlns="http://www.w3.org/2000/svg" xmlns:cc="http://creativecommons.org/ns#" xmlns:dc="http://purl.org/dc/elements/1.1/" id="svg3137" viewBox="0 0 300.6 300.13" version="1.1">
 <title id="title3183">Merlin2525 Copy Business Stamp 1. svg</title>
 <g id="layer1" transform="translate(-368.71 -196.23)">
  <g id="g3695" stroke="#0169c9" fill="#0169c9" transform="matrix(.74289 -.73919 .73919 .74289 147.97 208.09)">
   <path id="path3213" stroke-linejoin="round" d="m34.801 270.34c-7.756 0-14 6.244-14 14v117.72c0 7.756 6.244 14 14 14h246.31c7.756 0 14-6.244 14-14v-117.72c0-7.756-6.244-14-14-14h-246.31zm5.0937 5.9375h236.13c6.648 0 12 5.352 12 12v109.88c0 6.648-5.352 12-12 12h-236.13c-6.648 0-12-5.352-12-12v-109.88c0-6.648 5.352-12 12-12z" stroke-opacity=".55708" stroke-linecap="round" stroke-width=".6"/>
   <g id="text3215">
    <path id="path3407" d="m93.43 360.55c-5.408 0-9.536-1.504-12.384-4.512-2.816-3.008-4.224-7.28-4.224-12.816-0.000002-2.752 0.432-5.2 1.296-7.344 0.864-2.176 2.048-4 3.552-5.472 1.504-1.504 3.296-2.64 5.376-3.408 2.08-0.76796 4.336-1.152 6.768-1.152 1.408 0.00004 2.688 0.11204 3.84 0.336 1.152 0.19204 2.16 0.43204 3.024 0.72 0.86398 0.25604 1.584 0.52804 2.16 0.816 0.57597 0.28804 0.99197 0.51204 1.248 0.672l-2.16 6.048c-1.024-0.54397-2.224-1.008-3.6-1.392-1.344-0.38397-2.88-0.57597-4.608-0.576-1.152 0.00003-2.288 0.19203-3.408 0.576-1.088 0.38403-2.064 1.008-2.928 1.872-0.83201 0.83203-1.504 1.92-2.016 3.264-0.51201 1.344-0.76801 2.976-0.768 4.896-0.00001 1.536 0.15999 2.976 0.48 4.32 0.35199 1.312 0.89599 2.448 1.632 3.408 0.76799 0.96001 1.76 1.728 2.976 2.304 1.216 0.54401 2.688 0.81601 4.416 0.816 1.088 0.00001 2.064-0.064 2.928-0.192 0.86398-0.12799 1.632-0.27199 2.304-0.432 0.67198-0.19199 1.264-0.39999 1.776-0.624 0.51198-0.22399 0.97597-0.43199 1.392-0.624l2.064 6c-1.056 0.64001-2.544 1.216-4.464 1.728s-4.144 0.768-6.672 0.768"/>
    <path id="path3409" d="m127.21 343.23c-0.00001 1.632 0.19199 3.104 0.576 4.416 0.41599 1.312 0.99199 2.448 1.728 3.408 0.76799 0.92801 1.696 1.648 2.784 2.16 1.088 0.51201 2.336 0.76801 3.744 0.768 1.376 0.00001 2.608-0.25599 3.696-0.768 1.12-0.51199 2.048-1.232 2.784-2.16 0.76798-0.95999 1.344-2.096 1.728-3.408 0.41597-1.312 0.62397-2.784 0.624-4.416-0.00003-1.632-0.20803-3.104-0.624-4.416-0.38402-1.344-0.96002-2.48-1.728-3.408-0.73602-0.95997-1.664-1.696-2.784-2.208-1.088-0.51197-2.32-0.76797-3.696-0.768-1.408 0.00003-2.656 0.27203-3.744 0.816-1.088 0.51203-2.016 1.248-2.784 2.208-0.73601 0.92803-1.312 2.064-1.728 3.408-0.38401 1.312-0.57601 2.768-0.576 4.368m25.392 0c-0.00003 2.848-0.43203 5.36-1.296 7.536-0.83203 2.144-1.984 3.952-3.456 5.424-1.472 1.44-3.232 2.528-5.28 3.264-2.016 0.736-4.192 1.104-6.528 1.104-2.272 0-4.416-0.368-6.432-1.104-2.016-0.73599-3.776-1.824-5.28-3.264-1.504-1.472-2.688-3.28-3.552-5.424-0.864-2.176-1.296-4.688-1.296-7.536s0.448-5.344 1.344-7.488c0.896-2.176 2.096-4 3.6-5.472 1.536-1.472 3.296-2.576 5.28-3.312 2.016-0.73596 4.128-1.104 6.336-1.104 2.272 0.00004 4.416 0.36804 6.432 1.104 2.016 0.73604 3.776 1.84 5.28 3.312s2.688 3.296 3.552 5.472c0.86397 2.144 1.296 4.64 1.296 7.488"/>
    <path id="path3411" d="m180.31 326.23c4.96 0.00004 8.768 0.88004 11.424 2.64 2.656 1.728 3.984 4.576 3.984 8.544-0.00003 4-1.344 6.896-4.032 8.688-2.688 1.76-6.528 2.64-11.52 2.64h-2.352v11.136h-7.488v-32.784c1.632-0.31996 3.36-0.54396 5.184-0.672 1.824-0.12796 3.424-0.19196 4.8-0.192m0.48 6.384c-0.54401 0.00003-1.088 0.016-1.632 0.048-0.51201 0.032-0.96001 0.064-1.344 0.096v9.6h2.352c2.592 0.00002 4.544-0.35198 5.856-1.056 1.312-0.70398 1.968-2.016 1.968-3.936-0.00002-0.92797-0.17602-1.696-0.528-2.304-0.32002-0.60797-0.80002-1.088-1.44-1.44-0.60802-0.38397-1.36-0.63997-2.256-0.768-0.89601-0.15997-1.888-0.23997-2.976-0.24"/>
    <path id="path3413" d="m224.99 340.3c1.344-2.272 2.624-4.544 3.84-6.816s2.336-4.56 3.36-6.864h8.256c-1.824 3.584-3.712 7.056-5.664 10.416s-4.016 6.736-6.192 10.128v12.72h-7.488v-12.624c-2.176-3.392-4.256-6.784-6.24-10.176-1.952-3.392-3.84-6.88-5.664-10.464h8.688c1.024 2.304 2.128 4.592 3.312 6.864s2.448 4.544 3.792 6.816"/>
   </g>
  </g>
 </g>
 <metadata>
  <rdf:RDF>
   <cc:Work>
    <dc:format>image/svg+xml</dc:format>
    <dc:type rdf:resource="http://purl.org/dc/dcmitype/StillImage"/>
    <cc:license rdf:resource="http://creativecommons.org/licenses/publicdomain/"/>
    <dc:publisher>
     <cc:Agent rdf:about="http://openclipart.org/">
      <dc:title>Openclipart</dc:title>
     </cc:Agent>
    </dc:publisher>
   </cc:Work>
   <cc:License rdf:about="http://creativecommons.org/licenses/publicdomain/">
    <cc:permits rdf:resource="http://creativecommons.org/ns#Reproduction"/>
    <cc:permits rdf:resource="http://creativecommons.org/ns#Distribution"/>
    <cc:permits rdf:resource="http://creativecommons.org/ns#DerivativeWorks"/>
   </cc:License>
  </rdf:RDF>
 </metadata>
</svg>
